<svg width="60" height="40" viewBox="0 0 60 40" fill="none" xmlns="http://www.w3.org/2000/svg">
<g clip-path="url(#clip0_4036_164)">
<path d="M25.7091 33.3525H26.1134V35.9553H27.475V36.3354H25.7091V33.3525Z" fill="white"/>
<path d="M29.4059 36.4099C29.1749 36.4099 28.9686 36.3686 28.7788 36.2942C28.589 36.2116 28.424 36.1042 28.292 35.9637C28.1599 35.8232 28.0527 35.658 27.9701 35.4679C27.8959 35.2779 27.8546 35.0713 27.8546 34.8482C27.8546 34.6251 27.8959 34.4186 27.9701 34.2285C28.0444 34.0385 28.1517 33.8732 28.292 33.7328C28.424 33.5923 28.589 33.4849 28.7788 33.4023C28.9686 33.3196 29.1749 33.2783 29.4059 33.2783C29.637 33.2783 29.8433 33.3196 30.0331 33.4023C30.2229 33.4849 30.3879 33.5923 30.5199 33.7328C30.652 33.8732 30.7592 34.0385 30.8417 34.2285C30.916 34.4186 30.9573 34.6251 30.9573 34.8482C30.9573 35.0713 30.916 35.2779 30.8417 35.4679C30.7675 35.658 30.6602 35.8232 30.5199 35.9637C30.3796 36.1042 30.2229 36.2116 30.0331 36.2942C29.8433 36.3768 29.637 36.4099 29.4059 36.4099ZM29.4059 36.0298C29.5792 36.0298 29.7278 35.9968 29.868 35.9389C30.0083 35.8728 30.1238 35.7902 30.2229 35.6828C30.3219 35.5754 30.3962 35.4514 30.4539 35.3027C30.5034 35.1622 30.5364 35.0052 30.5364 34.84C30.5364 34.6747 30.5117 34.526 30.4539 34.3773C30.4044 34.2368 30.3219 34.1046 30.2229 33.9972C30.1238 33.8898 30.0083 33.8071 29.868 33.741C29.7278 33.6749 29.5792 33.6501 29.4059 33.6501C29.2327 33.6501 29.0841 33.6832 28.9438 33.741C28.8036 33.8071 28.688 33.8898 28.589 33.9972C28.49 34.1046 28.4157 34.2285 28.358 34.3773C28.3085 34.5177 28.2755 34.6747 28.2755 34.84C28.2755 35.0052 28.3002 35.154 28.358 35.3027C28.4075 35.4432 28.49 35.5754 28.589 35.6828C28.688 35.7902 28.8036 35.8728 28.9438 35.9389C29.0841 36.005 29.2327 36.0298 29.4059 36.0298Z" fill="white"/>
<path d="M33.7545 33.9971C33.672 33.8897 33.5647 33.8071 33.4327 33.741C33.3007 33.6831 33.1686 33.6501 33.0366 33.6501C32.8716 33.6501 32.7148 33.6831 32.5828 33.741C32.4425 33.8071 32.327 33.8897 32.2362 33.9971C32.1372 34.1045 32.0629 34.2367 32.0134 34.3854C31.9639 34.5342 31.9309 34.6912 31.9309 34.8564C31.9309 35.0134 31.9556 35.1621 32.0051 35.3026C32.0546 35.4431 32.1289 35.567 32.2279 35.6744C32.3187 35.7818 32.4425 35.8645 32.5745 35.9306C32.7148 35.9884 32.8716 36.0215 33.0449 36.0215C33.2181 36.0215 33.3667 35.9884 33.4905 35.914C33.6225 35.8397 33.7298 35.7488 33.8205 35.6166L34.1588 35.8727C34.1588 35.8727 34.1011 35.9471 34.0433 36.0049C33.9856 36.0628 33.9113 36.1206 33.8205 36.1785C33.7298 36.2363 33.6142 36.2859 33.4822 36.3272C33.3502 36.3685 33.2016 36.3933 33.0284 36.3933C32.7973 36.3933 32.5828 36.352 32.393 36.2611C32.2032 36.1702 32.0464 36.0545 31.9061 35.9058C31.7741 35.7571 31.6751 35.5918 31.6008 35.41C31.5348 35.2282 31.4935 35.0382 31.4935 34.8482C31.4935 34.6168 31.5348 34.402 31.6091 34.2119C31.6833 34.0136 31.7906 33.8484 31.9226 33.7079C32.0546 33.5674 32.2197 33.46 32.4095 33.3774C32.5993 33.2948 32.8138 33.2617 33.0449 33.2617C33.2429 33.2617 33.4327 33.303 33.6225 33.3774C33.8123 33.4518 33.9691 33.5674 34.0846 33.7244L33.7463 33.9806L33.7545 33.9971Z" fill="white"/>
<path d="M35.7267 33.3525H36.0898L37.3688 36.3354H36.8985L36.6014 35.6H35.1821L34.885 36.3354H34.4147L35.7267 33.3525ZM36.4446 35.2447L35.8917 33.8731L35.3306 35.2447H36.4611H36.4446Z" fill="white"/>
<path d="M37.8309 33.3525H38.8707C39.0852 33.3525 39.2667 33.3773 39.4235 33.4269C39.5803 33.4765 39.7206 33.5426 39.8361 33.6169C39.9516 33.6996 40.0507 33.7905 40.1249 33.8896C40.1992 33.997 40.2652 34.1044 40.3065 34.2119C40.3477 34.3193 40.3807 34.435 40.4055 34.5424C40.422 34.6498 40.4385 34.7572 40.4385 34.8481C40.4385 35.0381 40.4055 35.2199 40.3312 35.4017C40.2569 35.5835 40.1579 35.7405 40.0176 35.8809C39.8774 36.0214 39.7123 36.1288 39.506 36.2114C39.2997 36.2941 39.0687 36.3354 38.8046 36.3354H37.8309V33.3525ZM38.2353 35.9553H38.7469C38.9202 35.9553 39.0769 35.9305 39.2337 35.8892C39.3905 35.8396 39.5225 35.7735 39.6381 35.6826C39.7536 35.5917 39.8444 35.4761 39.9104 35.3356C39.9764 35.1951 40.0094 35.0381 40.0094 34.8481C40.0094 34.7489 39.9929 34.6415 39.9599 34.5093C39.9269 34.3854 39.8691 34.2614 39.7866 34.1458C39.7041 34.0301 39.5803 33.9309 39.4318 33.8566C39.2832 33.7822 39.0852 33.7326 38.8459 33.7326H38.2435V35.9553H38.2353Z" fill="white"/>
<path d="M42.5262 36.4099C42.2951 36.4099 42.0888 36.3686 41.899 36.2942C41.7093 36.2116 41.5442 36.1042 41.4122 35.9637C41.2802 35.8232 41.1729 35.658 41.0904 35.4679C41.0161 35.2779 40.9749 35.0713 40.9749 34.8482C40.9749 34.6251 41.0161 34.4186 41.0904 34.2285C41.1646 34.0385 41.2719 33.8732 41.4122 33.7328C41.5442 33.5923 41.7093 33.4849 41.899 33.4023C42.0888 33.3196 42.2951 33.2783 42.5262 33.2783C42.7572 33.2783 42.9635 33.3196 43.1533 33.4023C43.3431 33.4849 43.5081 33.5923 43.6402 33.7328C43.7804 33.8732 43.8795 34.0385 43.962 34.2285C44.0363 34.4186 44.0775 34.6251 44.0775 34.8482C44.0775 35.0713 44.0363 35.2779 43.962 35.4679C43.8877 35.658 43.7804 35.8232 43.6402 35.9637C43.4999 36.1042 43.3431 36.2116 43.1533 36.2942C42.9635 36.3768 42.7572 36.4099 42.5262 36.4099ZM42.5262 36.0298C42.6995 36.0298 42.848 35.9968 42.9883 35.9389C43.1286 35.8728 43.2441 35.7902 43.3431 35.6828C43.4421 35.5754 43.5164 35.4514 43.5742 35.3027C43.6237 35.1622 43.6567 35.0052 43.6567 34.84C43.6567 34.6747 43.6319 34.526 43.5742 34.3773C43.5246 34.2368 43.4421 34.1046 43.3431 33.9972C43.2441 33.8898 43.1286 33.8071 42.9883 33.741C42.848 33.6749 42.6995 33.6501 42.5262 33.6501C42.3529 33.6501 42.2044 33.6832 42.0641 33.741C41.9238 33.8071 41.8083 33.8898 41.7093 33.9972C41.6102 34.1046 41.536 34.2285 41.4782 34.3773C41.4287 34.5177 41.3957 34.6747 41.3957 34.84C41.3957 35.0052 41.4204 35.154 41.4782 35.3027C41.5277 35.4432 41.6102 35.5754 41.7093 35.6828C41.8083 35.7902 41.9238 35.8728 42.0641 35.9389C42.2044 36.005 42.3529 36.0298 42.5262 36.0298Z" fill="white"/>
<path d="M44.8037 33.3525H45.8516C46.0414 33.3525 46.1982 33.3773 46.322 33.4269C46.4458 33.4765 46.5448 33.5426 46.6108 33.6252C46.6851 33.7078 46.7346 33.7987 46.7593 33.8979C46.7841 33.997 46.8006 34.0962 46.8006 34.1871C46.8006 34.2862 46.7841 34.3771 46.7511 34.4597C46.7181 34.5506 46.6686 34.625 46.6025 34.6994C46.5365 34.7737 46.4623 34.8316 46.3715 34.8811C46.2807 34.9307 46.1817 34.9638 46.0662 34.972L46.9079 36.3354H46.4045L45.6453 35.0216H45.1997V36.3354H44.7954V33.3525H44.8037ZM45.208 34.6663H45.7361C45.8186 34.6663 45.8929 34.6663 45.9672 34.6498C46.0414 34.6333 46.1157 34.6167 46.1735 34.5837C46.2312 34.5506 46.2807 34.5011 46.322 34.435C46.3632 34.3689 46.3797 34.2862 46.3797 34.1871C46.3797 34.0879 46.3632 34.0053 46.322 33.9392C46.289 33.8731 46.2395 33.8318 46.1735 33.7987C46.1074 33.7657 46.0414 33.7409 45.9672 33.7326C45.8929 33.7244 45.8104 33.7161 45.7361 33.7161H45.208V34.6746V34.6663Z" fill="white"/>
<path d="M48.4509 33.3525H48.814L50.0847 36.3354H49.6144L49.3173 35.6H47.898L47.601 36.3354H47.1306L48.4426 33.3525H48.4509ZM49.1771 35.2447L48.6242 33.8731H48.6159L48.0548 35.2447H49.1853H49.1771Z" fill="white"/>
<path d="M49.7629 25.8994L39.5968 2.90429C38.8871 1.31785 37.6411 0.359375 35.8917 0.359375H35.5204C33.771 0.359375 32.4755 1.31785 31.7659 2.90429L21.5997 25.8994C21.3934 26.3621 21.2284 26.8166 21.2284 27.2793C21.2284 28.9484 22.5239 30.2869 24.1908 30.2869C25.5276 30.2869 26.6085 29.535 27.1531 28.2873L35.6112 8.16764L43.9867 28.0725C44.5726 29.4028 45.571 30.2869 47.0729 30.2869C48.781 30.2869 50.1178 28.907 50.1178 27.1967C50.1178 26.7835 49.994 26.3621 49.7877 25.8994" fill="white"/>
<path d="M0.5 33.6579L4.48559 29.9479C6.80434 32.6829 9.39538 34.2115 13.0097 34.2115C16.2031 34.2115 18.6126 32.2615 18.6126 29.2952V29.2043C18.6126 26.0066 15.6915 24.1971 11.1613 24.1971H8.5207L7.5965 20.6276L16.3516 11.3072H2.30713V6.34961H23.7452V10.6132L14.7178 19.8839C19.6276 20.4871 24.2568 22.9907 24.2568 28.9729V29.0638C24.2568 35.046 19.6688 39.3591 12.9106 39.3591C7.25818 39.3591 3.23133 36.996 0.5 33.6579Z" fill="white"/>
<path d="M59.1782 7.52291C58.7821 6.82058 58.0229 6.34961 57.1565 6.34961H48.2694C46.9821 6.34961 45.9424 7.39071 45.9424 8.67969C45.9424 9.96868 46.9821 11.0098 48.2694 11.0098H53.1462C53.468 11.0346 54.8543 11.2329 55.6712 12.6458C56.5211 14.1166 55.927 15.4716 55.7125 15.8683L59.1782 9.86126C59.6073 9.10935 59.5825 8.22524 59.1782 7.52291Z" fill="#F09005"/>
<path d="M55.6795 12.6458C54.8625 11.2329 53.468 11.0346 53.1544 11.0098L50.7202 15.232C50.0765 16.3475 50.4561 17.7687 51.5701 18.4132C52.6841 19.0576 54.1116 18.6776 54.747 17.5621L55.729 15.86C55.9353 15.4716 56.5376 14.1083 55.6877 12.6375L55.6795 12.6458Z" fill="#E7501D"/>
<path d="M47.8733 14.7279C47.3205 13.7611 46.2725 13.1001 45.076 13.1001H32.7396C30.9572 13.1001 29.5132 14.5461 29.5132 16.3308C29.5132 18.1156 30.9572 19.5615 32.7396 19.5615H39.4978C39.9434 19.5946 41.8743 19.8673 43.0048 21.8338C44.1848 23.8829 43.3596 25.7586 43.0708 26.3039L47.8733 17.9668C48.4757 16.9257 48.4262 15.6946 47.8733 14.7279Z" fill="#F09005"/>
<path d="M43.013 21.8338C41.8825 19.8673 39.9516 19.6029 39.506 19.5698L36.1228 25.4364C35.2316 26.9815 35.7597 28.9563 37.3028 29.8569C38.8459 30.7493 40.8263 30.2205 41.7093 28.6753L43.0708 26.3205C43.3596 25.7751 44.1848 23.8912 43.013 21.8503V21.8338Z" fill="#E7501D"/>
</g>
<defs>
<clipPath id="clip0_4036_164">
<rect width="59" height="39" fill="white" transform="translate(0.5 0.359375)"/>
</clipPath>
</defs>
</svg>
