<svg width="24" height="25" viewBox="0 0 24 25" fill="none" xmlns="http://www.w3.org/2000/svg">
<path d="M5 13.8599H8M2 9.85986L4 10.8599L5.27064 7.04793C5.53292 6.26111 5.66405 5.8677 5.90729 5.57684C6.12208 5.32 6.39792 5.12119 6.70951 4.99864C7.06236 4.85986 7.47705 4.85986 8.30643 4.85986H15.6936C16.523 4.85986 16.9376 4.85986 17.2905 4.99864C17.6021 5.12119 17.8779 5.32 18.0927 5.57684C18.3359 5.8677 18.4671 6.26111 18.7294 7.04793L20 10.8599L22 9.85986M16 13.8599H19M6.8 10.8599H17.2C18.8802 10.8599 19.7202 10.8599 20.362 11.1868C20.9265 11.4745 21.3854 11.9334 21.673 12.4979C22 13.1396 22 13.9797 22 15.6599V18.3599C22 18.8245 22 19.0568 21.9616 19.25C21.8038 20.0434 21.1836 20.6636 20.3902 20.8214C20.197 20.8599 19.9647 20.8599 19.5 20.8599H19C17.8954 20.8599 17 19.9644 17 18.8599C17 18.5837 16.7761 18.3599 16.5 18.3599H7.5C7.22386 18.3599 7 18.5837 7 18.8599C7 19.9644 6.10457 20.8599 5 20.8599H4.5C4.03534 20.8599 3.80302 20.8599 3.60982 20.8214C2.81644 20.6636 2.19624 20.0434 2.03843 19.25C2 19.0568 2 18.8245 2 18.3599V15.6599C2 13.9797 2 13.1396 2.32698 12.4979C2.6146 11.9334 3.07354 11.4745 3.63803 11.1868C4.27976 10.8599 5.11984 10.8599 6.8 10.8599Z" stroke="white" stroke-width="1.5" stroke-linecap="round" stroke-linejoin="round"/>
</svg>
