<svg width="56" height="57" viewBox="0 0 56 57" fill="none" xmlns="http://www.w3.org/2000/svg">
<circle cx="28" cy="28.788" r="28" fill="#F2F5FC"/>
<path d="M18.6666 30.1213H22.6666M14.6666 24.788L17.3333 26.1213L19.0275 21.0388C19.3772 19.9897 19.552 19.4651 19.8763 19.0773C20.1627 18.7349 20.5305 18.4698 20.946 18.3064C21.4164 18.1213 21.9694 18.1213 23.0752 18.1213H32.9247C34.0306 18.1213 34.5835 18.1213 35.054 18.3064C35.4694 18.4698 35.8372 18.7349 36.1236 19.0773C36.4479 19.4651 36.6227 19.9897 36.9724 21.0388L38.6666 26.1213L41.3333 24.788M33.3333 30.1213H37.3333M21.0666 26.1213H34.9333C37.1735 26.1213 38.2936 26.1213 39.1493 26.5573C39.9019 26.9408 40.5138 27.5527 40.8973 28.3054C41.3333 29.161 41.3333 30.2811 41.3333 32.5213V36.1213C41.3333 36.7409 41.3333 37.0506 41.2821 37.3082C41.0716 38.3661 40.2447 39.193 39.1869 39.4034C38.9293 39.4547 38.6195 39.4547 38 39.4547H37.3333C35.8605 39.4547 34.6666 38.2608 34.6666 36.788C34.6666 36.4198 34.3681 36.1213 34 36.1213H22C21.6318 36.1213 21.3333 36.4198 21.3333 36.788C21.3333 38.2608 20.1394 39.4547 18.6666 39.4547H18C17.3804 39.4547 17.0706 39.4547 16.8131 39.4034C15.7552 39.193 14.9283 38.3661 14.7179 37.3082C14.6666 37.0506 14.6666 36.7409 14.6666 36.1213V32.5213C14.6666 30.2811 14.6666 29.161 15.1026 28.3054C15.4861 27.5527 16.098 26.9408 16.8507 26.5573C17.7063 26.1213 18.8264 26.1213 21.0666 26.1213Z" stroke="#7C9EE8" stroke-width="1.5" stroke-linecap="round" stroke-linejoin="round"/>
</svg>
