<svg width="56" height="57" viewBox="0 0 56 57" fill="none" xmlns="http://www.w3.org/2000/svg">
<circle cx="28" cy="28.788" r="28" fill="#F2F5FC"/>
<path d="M28.0001 42.1213C35.3639 42.1213 41.3334 36.1517 41.3334 28.7879C41.3334 21.4241 35.3639 15.4546 28.0001 15.4546C20.6363 15.4546 14.6667 21.4241 14.6667 28.7879C14.6667 36.1517 20.6363 42.1213 28.0001 42.1213Z" stroke="#7C9EE8" stroke-width="1.5" stroke-linecap="round" stroke-linejoin="round"/>
<path d="M31.6296 23.8092C32.281 23.5921 32.6067 23.4835 32.8232 23.5607C33.0117 23.628 33.16 23.7763 33.2273 23.9648C33.3045 24.1814 33.1959 24.5071 32.9788 25.1584L30.9954 31.1086C30.9336 31.2941 30.9026 31.3869 30.8499 31.4639C30.8033 31.5322 30.7443 31.5911 30.6761 31.6378C30.5991 31.6905 30.5063 31.7214 30.3208 31.7832L24.3706 33.7666C23.7192 33.9838 23.3935 34.0923 23.1769 34.0151C22.9884 33.9479 22.8401 33.7996 22.7729 33.6111C22.6957 33.3945 22.8042 33.0688 23.0214 32.4174L25.0048 26.4672C25.0666 26.2817 25.0975 26.1889 25.1502 26.1119C25.1969 26.0437 25.2558 25.9847 25.3241 25.9381C25.4011 25.8854 25.4939 25.8544 25.6794 25.7926L31.6296 23.8092Z" stroke="#7C9EE8" stroke-width="1.5" stroke-linecap="round" stroke-linejoin="round"/>
</svg>
