<svg width="56" height="57" viewBox="0 0 56 57" fill="none" xmlns="http://www.w3.org/2000/svg">
<circle cx="28" cy="28.788" r="28" fill="#F2F5FC"/>
<path d="M34.6667 39.4546H34.4C32.1598 39.4546 31.0397 39.4546 30.184 39.0186C29.4314 38.6351 28.8195 38.0232 28.436 37.2706C28 36.4149 28 35.2948 28 33.0546V24.5213C28 22.281 28 21.1609 28.436 20.3053C28.8195 19.5526 29.4314 18.9407 30.184 18.5572C31.0397 18.1213 32.1598 18.1213 34.4 18.1213H34.6667M34.6667 39.4546C34.6667 40.9274 35.8606 42.1213 37.3333 42.1213C38.8061 42.1213 40 40.9274 40 39.4546C40 37.9818 38.8061 36.7879 37.3333 36.7879C35.8606 36.7879 34.6667 37.9818 34.6667 39.4546ZM34.6667 18.1213C34.6667 19.594 35.8606 20.7879 37.3333 20.7879C38.8061 20.7879 40 19.594 40 18.1213C40 16.6485 38.8061 15.4546 37.3333 15.4546C35.8606 15.4546 34.6667 16.6485 34.6667 18.1213ZM21.3333 28.7879L34.6667 28.7879M21.3333 28.7879C21.3333 30.2607 20.1394 31.4546 18.6667 31.4546C17.1939 31.4546 16 30.2607 16 28.7879C16 27.3152 17.1939 26.1213 18.6667 26.1213C20.1394 26.1213 21.3333 27.3152 21.3333 28.7879ZM34.6667 28.7879C34.6667 30.2607 35.8606 31.4546 37.3333 31.4546C38.8061 31.4546 40 30.2607 40 28.7879C40 27.3152 38.8061 26.1213 37.3333 26.1213C35.8606 26.1213 34.6667 27.3152 34.6667 28.7879Z" stroke="#7C9EE8" stroke-width="1.5" stroke-linecap="round" stroke-linejoin="round"/>
</svg>
