<svg width="57" height="57" viewBox="0 0 57 57" fill="none" xmlns="http://www.w3.org/2000/svg">
<circle cx="28.5" cy="28.3599" r="28" fill="#FFEED1"/>
<path d="M25.8334 33.693H31.1667M24.2334 41.693H32.7667C35.0069 41.693 36.127 41.693 36.9827 41.2571C37.7353 40.8736 38.3472 40.2616 38.7307 39.509C39.1667 38.6533 39.1667 37.5332 39.1667 35.293V21.4264C39.1667 19.1862 39.1667 18.0661 38.7307 17.2104C38.3472 16.4578 37.7353 15.8458 36.9827 15.4623C36.127 15.0264 35.0069 15.0264 32.7667 15.0264H24.2334C21.9932 15.0264 20.8731 15.0264 20.0174 15.4623C19.2648 15.8458 18.6528 16.4578 18.2693 17.2104C17.8334 18.0661 17.8334 19.1862 17.8334 21.4264V35.293C17.8334 37.5332 17.8334 38.6533 18.2693 39.509C18.6528 40.2616 19.2648 40.8736 20.0174 41.2571C20.8731 41.693 21.9932 41.693 24.2334 41.693ZM32.5 24.3597C32.5 26.5688 30.7092 28.3597 28.5 28.3597C26.2909 28.3597 24.5 26.5688 24.5 24.3597C24.5 22.1506 26.2909 20.3597 28.5 20.3597C30.7092 20.3597 32.5 22.1506 32.5 24.3597Z" stroke="#F09005" stroke-width="1.5" stroke-linecap="round" stroke-linejoin="round"/>
</svg>
