<svg width="56" height="57" viewBox="0 0 56 57" fill="none" xmlns="http://www.w3.org/2000/svg">
<circle cx="28" cy="28.788" r="28" fill="#F2F5FC"/>
<path d="M25.3333 34.1213H30.6666M23.7333 42.1213H32.2666C34.5068 42.1213 35.6269 42.1213 36.4825 41.6853C37.2352 41.3018 37.8471 40.6899 38.2306 39.9372C38.6666 39.0816 38.6666 37.9615 38.6666 35.7213V21.8546C38.6666 19.6144 38.6666 18.4943 38.2306 17.6386C37.8471 16.886 37.2352 16.2741 36.4825 15.8906C35.6269 15.4546 34.5068 15.4546 32.2666 15.4546H23.7333C21.493 15.4546 20.3729 15.4546 19.5173 15.8906C18.7646 16.2741 18.1527 16.886 17.7692 17.6386C17.3333 18.4943 17.3333 19.6144 17.3333 21.8546V35.7213C17.3333 37.9615 17.3333 39.0816 17.7692 39.9372C18.1527 40.6899 18.7646 41.3018 19.5173 41.6853C20.3729 42.1213 21.493 42.1213 23.7333 42.1213ZM31.9999 24.7879C31.9999 26.9971 30.2091 28.7879 27.9999 28.7879C25.7908 28.7879 23.9999 26.9971 23.9999 24.7879C23.9999 22.5788 25.7908 20.7879 27.9999 20.7879C30.2091 20.7879 31.9999 22.5788 31.9999 24.7879Z" stroke="#7C9EE8" stroke-width="1.5" stroke-linecap="round" stroke-linejoin="round"/>
</svg>
