<svg width="56" height="57" viewBox="0 0 56 57" fill="none" xmlns="http://www.w3.org/2000/svg">
<circle cx="28" cy="28.788" r="28" fill="#F2F5FC"/>
<path d="M23.6667 28.364L26.3333 31.0306L32.3333 25.0306M38.3333 29.0306C38.3333 35.5752 31.1947 40.3352 28.5973 41.8505C28.3021 42.0227 28.1545 42.1088 27.9462 42.1535C27.7846 42.1881 27.5487 42.1881 27.3871 42.1535C27.1788 42.1088 27.0312 42.0227 26.736 41.8505C24.1386 40.3352 17 35.5752 17 29.0306V22.6541C17 21.5881 17 21.0551 17.1743 20.5969C17.3284 20.1922 17.5786 19.831 17.9035 19.5447C18.2713 19.2205 18.7704 19.0334 19.7685 18.6591L26.9176 15.9782C27.1948 15.8742 27.3334 15.8223 27.476 15.8017C27.6024 15.7834 27.7309 15.7834 27.8574 15.8017C27.9999 15.8223 28.1385 15.8742 28.4157 15.9782L35.5648 18.6591C36.5629 19.0334 37.062 19.2205 37.4298 19.5447C37.7547 19.831 38.005 20.1922 38.159 20.5969C38.3333 21.0551 38.3333 21.5881 38.3333 22.6541V29.0306Z" stroke="#7C9EE8" stroke-width="1.5" stroke-linecap="round" stroke-linejoin="round"/>
</svg>
