<svg width="56" height="57" viewBox="0 0 56 57" fill="none" xmlns="http://www.w3.org/2000/svg">
<circle cx="28" cy="28.788" r="28" fill="#F2F5FC"/>
<path d="M24.5269 38.6161L25.3061 40.3687C25.5378 40.8904 25.9158 41.3336 26.3944 41.6447C26.873 41.9558 27.4316 42.1214 28.0024 42.1213C28.5733 42.1214 29.1318 41.9558 29.6104 41.6447C30.089 41.3336 30.4671 40.8904 30.6987 40.3687L31.478 38.6161C31.7554 37.9942 32.222 37.4757 32.8113 37.1346C33.4044 36.7925 34.0904 36.6468 34.7713 36.7183L36.678 36.9213C37.2456 36.9813 37.8183 36.8754 38.3269 36.6164C38.8355 36.3573 39.258 35.9564 39.5432 35.462C39.8288 34.9679 39.9648 34.4016 39.9348 33.8318C39.9048 33.2619 39.7101 32.713 39.3743 32.2516L38.2454 30.7005C37.8434 30.1441 37.6287 29.4743 37.6321 28.7879C37.6319 28.1034 37.8487 27.4364 38.2513 26.8827L39.3802 25.3316C39.7161 24.8703 39.9108 24.3213 39.9408 23.7515C39.9707 23.1816 39.8347 22.6153 39.5491 22.1213C39.2639 21.6269 38.8414 21.2259 38.3328 20.9669C37.8243 20.7079 37.2515 20.602 36.6839 20.662L34.7773 20.865C34.0964 20.9365 33.4103 20.7908 32.8173 20.4487C32.2268 20.1056 31.76 19.5844 31.4839 18.9598L30.6987 17.2072C30.4671 16.6855 30.089 16.2422 29.6104 15.9311C29.1318 15.62 28.5733 15.4545 28.0024 15.4546C27.4316 15.4545 26.873 15.62 26.3944 15.9311C25.9158 16.2422 25.5378 16.6855 25.3061 17.2072L24.5269 18.9598C24.2508 19.5844 23.784 20.1056 23.1936 20.4487C22.6005 20.7908 21.9144 20.9365 21.2336 20.865L19.321 20.662C18.7534 20.602 18.1806 20.7079 17.672 20.9669C17.1635 21.2259 16.741 21.6269 16.4558 22.1213C16.1702 22.6153 16.0342 23.1816 16.0641 23.7515C16.0941 24.3213 16.2888 24.8703 16.6247 25.3316L17.7536 26.8827C18.1561 27.4364 18.3729 28.1034 18.3728 28.7879C18.3729 29.4725 18.1561 30.1395 17.7536 30.6931L16.6247 32.2442C16.2888 32.7056 16.0941 33.2545 16.0641 33.8244C16.0342 34.3942 16.1702 34.9605 16.4558 35.4546C16.7413 35.9487 17.1638 36.3495 17.6723 36.6084C18.1808 36.8674 18.7534 36.9735 19.321 36.9139L21.2276 36.7109C21.9085 36.6394 22.5946 36.7851 23.1876 37.1272C23.7803 37.4693 24.2492 37.9906 24.5269 38.6161Z" stroke="#7C9EE8" stroke-width="1.5" stroke-linecap="round" stroke-linejoin="round"/>
<path d="M28.0001 32.7879C30.2092 32.7879 32.0001 30.9971 32.0001 28.7879C32.0001 26.5788 30.2092 24.7879 28.0001 24.7879C25.7909 24.7879 24.0001 26.5788 24.0001 28.7879C24.0001 30.9971 25.7909 32.7879 28.0001 32.7879Z" stroke="#7C9EE8" stroke-width="1.5" stroke-linecap="round" stroke-linejoin="round"/>
</svg>
