<svg width="56" height="57" viewBox="0 0 56 57" fill="none" xmlns="http://www.w3.org/2000/svg">
<circle cx="28" cy="28.788" r="28" fill="#F2F5FC"/>
<path d="M41.3333 28.7879C41.3333 36.1517 35.3638 42.1213 28 42.1213C20.6362 42.1213 14.6666 36.1517 14.6666 28.7879M41.3333 28.7879C41.3333 21.4241 35.3638 15.4546 28 15.4546M41.3333 28.7879H38M14.6666 28.7879C14.6666 21.4241 20.6362 15.4546 28 15.4546M14.6666 28.7879H18M28 15.4546V18.7879M37.4379 19.4546L29.9998 26.7879M37.4379 38.2258L37.166 37.954C36.2436 37.0316 35.7824 36.5703 35.2442 36.2405C34.767 35.9481 34.2467 35.7326 33.7025 35.602C33.0887 35.4546 32.4365 35.4546 31.132 35.4546L24.8679 35.4546C23.5634 35.4546 22.9112 35.4546 22.2974 35.602C21.7532 35.7327 21.233 35.9482 20.7558 36.2406C20.2176 36.5704 19.7564 37.0316 18.834 37.954L18.5621 38.2258M18.5621 19.4546L20.8774 21.7699M30.6666 28.7879C30.6666 30.2607 29.4727 31.4546 28 31.4546C26.5272 31.4546 25.3333 30.2607 25.3333 28.7879C25.3333 27.3152 26.5272 26.1213 28 26.1213C29.4727 26.1213 30.6666 27.3152 30.6666 28.7879Z" stroke="#7C9EE8" stroke-width="1.5" stroke-linecap="round" stroke-linejoin="round"/>
</svg>
