<svg width="56" height="57" viewBox="0 0 56 57" fill="none" xmlns="http://www.w3.org/2000/svg">
<circle cx="28" cy="28.788" r="28" fill="#F2F5FC"/>
<path d="M20 21.7879L26 27.7879M20 21.7879H16L14.6666 17.7879L16 16.4546L20 17.7879V21.7879ZM37.6786 17.4426L34.1751 20.9461C33.6471 21.4741 33.3831 21.7381 33.2842 22.0426C33.1972 22.3104 33.1972 22.5988 33.2842 22.8666C33.3831 23.1711 33.6471 23.4351 34.1751 23.9631L34.4915 24.2794C35.0195 24.8075 35.2835 25.0715 35.5879 25.1704C35.8557 25.2574 36.1442 25.2574 36.412 25.1704C36.7164 25.0715 36.9804 24.8075 37.5085 24.2794L40.7857 21.0022C41.1386 21.8611 41.3333 22.8018 41.3333 23.7879C41.3333 27.838 38.05 31.1213 34 31.1213C33.5117 31.1213 33.0345 31.0735 32.573 30.9825C31.9248 30.8547 31.6007 30.7907 31.4042 30.8103C31.1953 30.8311 31.0924 30.8625 30.9073 30.9615C30.7332 31.0547 30.5586 31.2293 30.2093 31.5786L20.6666 41.1212C19.5621 42.2258 17.7712 42.2258 16.6666 41.1212C15.5621 40.0167 15.5621 38.2258 16.6666 37.1212L26.2093 27.5786C26.5586 27.2293 26.7332 27.0547 26.8264 26.8806C26.9254 26.6955 26.9567 26.5926 26.9776 26.3837C26.9971 26.1872 26.9332 25.8631 26.8054 25.2149C26.7143 24.7533 26.6666 24.2762 26.6666 23.7879C26.6666 19.7378 29.9499 16.4546 34 16.4546C35.3406 16.4546 36.5973 16.8144 37.6786 17.4426ZM28 33.7878L35.3333 41.1211C36.4379 42.2257 38.2287 42.2257 39.3333 41.1211C40.4378 40.0165 40.4378 38.2257 39.3333 37.1211L33.3004 31.0883C32.8733 31.0479 32.4569 30.9709 32.0543 30.8604C31.5356 30.718 30.9666 30.8213 30.5862 31.2017L28 33.7878Z" stroke="#7C9EE8" stroke-width="1.5" stroke-linecap="round" stroke-linejoin="round"/>
</svg>
