<svg width="57" height="57" viewBox="0 0 57 57" fill="none" xmlns="http://www.w3.org/2000/svg">
<circle cx="28.5" cy="28.3599" r="28" fill="#FFEED1"/>
<path d="M20.5 21.3597L26.5 27.3597M20.5 21.3597H16.5L15.1666 17.3597L16.5 16.0264L20.5 17.3597V21.3597ZM38.1786 17.0144L34.6751 20.5179C34.1471 21.0459 33.8831 21.3099 33.7842 21.6143C33.6972 21.8821 33.6972 22.1706 33.7842 22.4384C33.8831 22.7428 34.1471 23.0068 34.6751 23.5349L34.9915 23.8512C35.5195 24.3792 35.7835 24.6432 36.0879 24.7422C36.3557 24.8292 36.6442 24.8292 36.912 24.7422C37.2164 24.6432 37.4804 24.3792 38.0085 23.8512L41.2857 20.574C41.6386 21.4329 41.8333 22.3736 41.8333 23.3597C41.8333 27.4098 38.55 30.693 34.5 30.693C34.0117 30.693 33.5345 30.6453 33.073 30.5543C32.4248 30.4264 32.1007 30.3625 31.9042 30.3821C31.6953 30.4029 31.5924 30.4342 31.4073 30.5333C31.2332 30.6264 31.0586 30.8011 30.7093 31.1503L21.1666 40.693C20.0621 41.7976 18.2712 41.7976 17.1666 40.693C16.0621 39.5884 16.0621 37.7976 17.1666 36.693L26.7093 27.1503C27.0586 26.8011 27.2332 26.6264 27.3264 26.4524C27.4254 26.2673 27.4567 26.1643 27.4776 25.9554C27.4971 25.759 27.4332 25.4349 27.3054 24.7867C27.2143 24.3251 27.1666 23.848 27.1666 23.3597C27.1666 19.3096 30.4499 16.0264 34.5 16.0264C35.8406 16.0264 37.0973 16.3861 38.1786 17.0144ZM28.5 33.3596L35.8333 40.6929C36.9379 41.7975 38.7287 41.7975 39.8333 40.6929C40.9378 39.5883 40.9378 37.7974 39.8333 36.6929L33.8004 30.6601C33.3733 30.6197 32.9569 30.5426 32.5543 30.4321C32.0356 30.2898 31.4666 30.3931 31.0862 30.7735L28.5 33.3596Z" stroke="#F09005" stroke-width="1.5" stroke-linecap="round" stroke-linejoin="round"/>
</svg>
